<svg xmlns="http://www.w3.org/2000/svg" viewBox="0 0 491.87 463.71"><defs><style>.a{fill:#fff;}.b{fill:#478cbf;}.c{fill:#414042;}</style></defs><title>godot-game-engine-icon</title><path class="a" d="M461.74,315.88s-.72-4.4-1.13-4.36l-79.82,7.7a13,13,0,0,0-11.73,12l-2.2,31.44-61.75,4.41-4.2-28.48A13.08,13.08,0,0,0,288,327.51H203.79a13.09,13.09,0,0,0-12.87,11.12l-4.21,28.48L125,362.7l-2.19-31.44a13,13,0,0,0-11.73-12l-79.86-7.7c-.41,0-.72,4.36-1.13,4.36l-.11,17.28,67.64,10.9,2.22,31.71a13.08,13.08,0,0,0,12,12.07l85.05,6.06c.32,0,.64,0,1,0a13.08,13.08,0,0,0,12.85-11.11L215,353.51H276.8l4.32,29.32A13.09,13.09,0,0,0,294,393.94c.31,0,.62,0,.93,0L380,387.84A13.08,13.08,0,0,0,392,375.77l2.21-31.71,67.6-10.95Z"/><path class="b" d="M30.07,185.77V316a5.53,5.53,0,0,1,.71,0l79.87,7.69a8.61,8.61,0,0,1,7.75,8L120.86,367l69.65,5,4.8-32.54a8.59,8.59,0,0,1,8.5-7.34h84.26a8.59,8.59,0,0,1,8.5,7.34l4.8,32.54L371,367l2.46-35.25a8.61,8.61,0,0,1,7.75-8l79.82-7.69a5.63,5.63,0,0,1,.71,0V305.63h0V185.78h.3a470,470,0,0,0,29.76-42.91c-12.47-21.22-27.75-40.2-44.08-57.76A435.23,435.23,0,0,0,404,110.55c-7-6.91-14.78-12.56-22.48-18.47C374,86,365.49,81.56,357.41,76.38a500.18,500.18,0,0,0,4.07-53.94C340.64,12,318.41,5,295.93,0A467.37,467.37,0,0,0,271.6,47.39a165.82,165.82,0,0,0-25.53-2v0l-.16,0-.16,0v0a165.82,165.82,0,0,0-25.53,2A462.33,462.33,0,0,0,195.89,0c-22.46,5-44.7,12-65.52,22.44a495.31,495.31,0,0,0,4.07,53.94c-8.09,5.18-16.59,9.63-24.15,15.7C102.61,98,94.76,103.64,87.8,110.55A429.1,429.1,0,0,0,44.06,85.11C27.73,102.69,12.46,121.65,0,142.87a468,468,0,0,0,29.76,42.91Z"/><path class="b" d="M390.15,340.07l-2.47,35.43a8.59,8.59,0,0,1-8,8l-85.06,6.07c-.21,0-.42,0-.62,0a8.59,8.59,0,0,1-8.5-7.34l-4.88-33.07H211.24l-4.87,33.07a8.6,8.6,0,0,1-9.12,7.32l-85.07-6.07a8.6,8.6,0,0,1-8-8l-2.47-35.43-71.81-6.93c0,7.72.13,16.17.13,17.86,0,75.82,96.19,112.29,215.72,112.71h.29c119.53-.42,215.7-36.87,215.7-112.71,0-1.72.1-10.14.14-17.86Z"/><path class="a" d="M180.85,238.63a48.12,48.12,0,1,1-48.11-48.09,48.12,48.12,0,0,1,48.11,48.09"/><path class="c" d="M169.34,241.36a31.95,31.95,0,1,1-31.94-31.94,31.93,31.93,0,0,1,31.94,31.94"/><path class="a" d="M246,291.1c-8.55,0-15.49-6.3-15.49-14.07v-44.3c0-7.77,6.94-14.08,15.49-14.08s15.51,6.31,15.51,14.08V277c0,7.77-6.95,14.07-15.51,14.07"/><path class="a" d="M311,238.63a48.13,48.13,0,1,0,48.14-48.09A48.13,48.13,0,0,0,311,238.63"/><path class="c" d="M322.66,241.36a31.94,31.94,0,1,0,31.93-31.94,31.92,31.92,0,0,0-31.93,31.94"/></svg>